<svg xmlns="http://www.w3.org/2000/svg" viewBox="0 0 800 450">
  <defs>
    <linearGradient id="hobbyGrad" x1="0%" y1="0%" x2="100%" y2="100%">
      <stop offset="0%" style="stop-color:#8b2f5c;stop-opacity:1" />
      <stop offset="50%" style="stop-color:#c44569;stop-opacity:1" />
      <stop offset="100%" style="stop-color:#f67280;stop-opacity:1" />
    </linearGradient>
    <pattern id="hobbyPattern" patternUnits="userSpaceOnUse" width="70" height="70">
      <circle cx="35" cy="35" r="1.5" fill="rgba(255,255,255,0.05)"/>
    </pattern>
  </defs>
  <rect width="800" height="450" fill="url(#hobbyGrad)"/>
  <rect width="800" height="450" fill="url(#hobbyPattern)"/>
  <!-- Star icon -->
  <g transform="translate(580, 270)" opacity="0.15">
    <polygon points="60,0 72,45 120,45 81,73 93,120 60,92 27,120 39,73 0,45 48,45" fill="white" transform="scale(1.2)"/>
  </g>
  <!-- Decorative sparkles -->
  <g fill="rgba(255,255,255,0.1)">
    <polygon points="100,350 105,360 115,360 107,367 110,378 100,372 90,378 93,367 85,360 95,360" transform="scale(0.8)"/>
    <polygon points="180,380 183,386 190,386 185,390 187,397 180,393 173,397 175,390 170,386 177,386" transform="scale(0.7)"/>
  </g>
  <!-- Paint palette suggestion -->
  <ellipse cx="120" cy="400" rx="50" ry="25" fill="rgba(255,255,255,0.05)" transform="rotate(-15, 120, 400)"/>
</svg>

