<svg xmlns="http://www.w3.org/2000/svg" viewBox="0 0 800 450">
  <defs>
    <linearGradient id="travelGrad" x1="0%" y1="0%" x2="100%" y2="100%">
      <stop offset="0%" style="stop-color:#c75b39;stop-opacity:1" />
      <stop offset="50%" style="stop-color:#e07b4f;stop-opacity:1" />
      <stop offset="100%" style="stop-color:#f4a261;stop-opacity:1" />
    </linearGradient>
    <pattern id="travelPattern" patternUnits="userSpaceOnUse" width="90" height="90">
      <circle cx="45" cy="45" r="1.5" fill="rgba(255,255,255,0.06)"/>
    </pattern>
  </defs>
  <rect width="800" height="450" fill="url(#travelGrad)"/>
  <rect width="800" height="450" fill="url(#travelPattern)"/>
  <!-- Airplane icon -->
  <g transform="translate(560, 260)" opacity="0.15">
    <path d="M80 60 L140 40 L145 45 L95 75 L100 110 L90 105 L85 80 L50 95 L45 85 L75 70 L30 50 L35 40 Z" fill="white" transform="scale(1.2) rotate(-20, 80, 60)"/>
  </g>
  <!-- Sun rays -->
  <circle cx="700" cy="80" r="60" fill="rgba(255,255,255,0.08)"/>
  <circle cx="700" cy="80" r="40" fill="rgba(255,255,255,0.05)"/>
  <!-- Mountains silhouette -->
  <path d="M0 450 L150 320 L250 380 L400 280 L500 350 L600 300 L800 450 Z" fill="rgba(0,0,0,0.1)"/>
</svg>

